<svg width="14" height="8" viewBox="0 0 14 8" fill="none" xmlns="http://www.w3.org/2000/svg">
<path d="M0.683473 0.666645C1.06092 0.298456 1.67288 0.298455 2.05032 0.666645L7.5177 5.99998C7.89515 6.36817 7.89515 6.96512 7.5177 7.33331C7.14026 7.7015 6.5283 7.7015 6.15086 7.33331L0.683474 1.99998C0.30603 1.63179 0.306029 1.03484 0.683473 0.666645Z" fill="white"/>
<path d="M13.3166 0.666645C12.9392 0.298456 12.3272 0.298455 11.9498 0.666645L6.4824 5.99998C6.10495 6.36817 6.10495 6.96512 6.4824 7.33331C6.85984 7.7015 7.4718 7.7015 7.84924 7.33331L13.3166 1.99998C13.6941 1.63179 13.6941 1.03484 13.3166 0.666645Z" fill="white"/>
</svg>
