<svg width="23" height="23" viewBox="0 0 23 23" fill="none" xmlns="http://www.w3.org/2000/svg">
<path d="M11.5 0C5.14875 0 0 5.14868 0 11.5C0 17.8513 5.14875 23 11.5 23C17.8513 23 23 17.8513 23 11.5C23 5.14868 17.8513 0 11.5 0ZM11.5 21.85C10.5897 21.85 9.41584 20.1538 8.69856 17.25H14.3014C13.5842 20.1538 12.4103 21.85 11.5 21.85ZM8.45198 16.1C8.23257 14.9098 8.09148 13.5604 8.06158 12.075H14.9384C14.9085 13.5604 14.7674 14.9098 14.548 16.1H8.45198ZM1.17913 12.075H6.91158C6.93987 13.5 7.06811 14.8578 7.28535 16.1H2.24209C1.63087 14.875 1.2588 13.5149 1.17913 12.075ZM11.5 1.15C12.4103 1.15 13.5842 2.84622 14.3014 5.75H8.69856C9.41584 2.84622 10.5897 1.15 11.5 1.15ZM14.548 6.9C14.7674 8.09022 14.9085 9.43956 14.9384 10.925H8.06158C8.09148 9.43956 8.23257 8.09022 8.45198 6.9H14.548ZM6.91158 10.925H1.17913C1.2588 9.48511 1.63087 8.12496 2.24209 6.9H7.28535C7.06811 8.14223 6.93987 9.49999 6.91158 10.925ZM16.0884 12.075H21.8209C21.7412 13.5149 21.3691 14.875 20.7579 16.1H15.7147C15.9319 14.8578 16.0601 13.5 16.0884 12.075ZM16.0884 10.925C16.0601 9.49999 15.9319 8.14223 15.7147 6.9H20.7579C21.3691 8.12496 21.7412 9.48511 21.8209 10.925H16.0884ZM20.0999 5.75H15.4796C15.0553 3.91866 14.4383 2.40107 13.6934 1.389C16.351 1.96519 18.6318 3.56146 20.0999 5.75ZM9.30662 1.389C8.56169 2.40107 7.94471 3.91866 7.52041 5.75H2.90006C4.36816 3.56146 6.649 1.96519 9.30662 1.389ZM2.90006 17.25H7.52041C7.94471 19.0813 8.56176 20.5989 9.30669 21.611C6.64907 21.0348 4.36816 19.4386 2.90006 17.25ZM13.6933 21.611C14.4382 20.5989 15.0553 19.0813 15.4796 17.25H20.0999C18.6318 19.4386 16.3509 21.0348 13.6933 21.611Z" fill="black"/>
</svg>
