<svg width="14" height="109" viewBox="0 0 14 109" fill="none" xmlns="http://www.w3.org/2000/svg">
<path d="M12.5547 61.1328L10.6406 61.1328C10.7969 60.9609 10.9375 60.7578 11.0625 60.5234C11.1875 60.2839 11.2943 60.0312 11.3828 59.7656C11.4661 59.5 11.5312 59.2344 11.5781 58.9687C11.625 58.7031 11.6484 58.4583 11.6484 58.2344C11.6484 57.4531 11.5182 56.8724 11.2578 56.4922C10.9974 56.1068 10.6198 55.9141 10.125 55.9141C9.85937 55.9141 9.63021 55.9792 9.4375 56.1094C9.23958 56.2344 9.0599 56.4115 8.89844 56.6406C8.73698 56.8698 8.58333 57.1406 8.4375 57.4531C8.28646 57.7604 8.13021 58.0911 7.96875 58.4453C7.76562 58.8255 7.5599 59.1797 7.35156 59.5078C7.14323 59.8359 6.91406 60.1224 6.66406 60.3672C6.40885 60.6068 6.1224 60.7969 5.80469 60.9375C5.48698 61.0729 5.11458 61.1406 4.6875 61.1406C4.16146 61.1406 3.70573 61.0234 3.32031 60.7891C2.92969 60.5495 2.60937 60.237 2.35937 59.8516C2.10417 59.4609 1.91667 59.0182 1.79687 58.5234C1.67187 58.0286 1.60937 57.5234 1.60937 57.0078C1.60937 55.8359 1.74219 54.9818 2.00781 54.4453L3.84375 54.4453C3.38542 55.0807 3.15625 55.8984 3.15625 56.8984C3.15625 57.1745 3.18229 57.4505 3.23437 57.7266C3.28646 57.9974 3.3724 58.2422 3.49219 58.4609C3.61198 58.6745 3.76562 58.849 3.95312 58.9844C4.14062 59.1198 4.36719 59.1875 4.63281 59.1875C4.88281 59.1875 5.09896 59.1354 5.28125 59.0312C5.46354 58.9271 5.63021 58.776 5.78125 58.5781C5.93229 58.375 6.08073 58.1302 6.22656 57.8437C6.36719 57.5521 6.52083 57.2161 6.6875 56.8359C6.89062 56.4453 7.10417 56.0781 7.32812 55.7344C7.55208 55.3854 7.79948 55.0807 8.07031 54.8203C8.34115 54.5547 8.64323 54.3464 8.97656 54.1953C9.30469 54.0391 9.67969 53.9609 10.1016 53.9609C10.6693 53.9609 11.1484 54.0755 11.5391 54.3047C11.9297 54.5339 12.2474 54.8437 12.4922 55.2344C12.737 55.6198 12.9141 56.0651 13.0234 56.5703C13.1328 57.0755 13.1875 57.6094 13.1875 58.1719C13.1875 58.3594 13.1719 58.5911 13.1406 58.8672C13.1146 59.138 13.0729 59.4167 13.0156 59.7031C12.9635 59.9896 12.8984 60.2604 12.8203 60.5156C12.7422 60.7708 12.6536 60.9766 12.5547 61.1328ZM12.5312 43.2859C12.9687 44.1297 13.1875 45.1792 13.1875 46.4344C13.1875 48.0594 12.6745 49.3615 11.6484 50.3406C10.6224 51.3198 9.27604 51.8094 7.60937 51.8094C5.81771 51.8094 4.36979 51.2599 3.26562 50.1609C2.16146 49.0568 1.60937 47.6635 1.60937 45.9812C1.60937 44.8979 1.76302 43.9995 2.07031 43.2859L3.91406 43.2859C3.46615 44.0411 3.24219 44.8745 3.24219 45.7859C3.24219 46.9995 3.63021 47.9839 4.40625 48.7391C5.18229 49.4891 6.21875 49.8641 7.51562 49.8641C8.75 49.8641 9.73437 49.5125 10.4687 48.8094C11.1979 48.1062 11.5625 47.1818 11.5625 46.0359C11.5625 44.9786 11.3125 44.062 10.8125 43.2859L12.5312 43.2859ZM13 31.7047L13 33.8766L10 35.6656C9.72396 35.8271 9.48958 35.9859 9.29687 36.1422C9.09896 36.2932 8.9375 36.4495 8.8125 36.6109C8.6875 36.7672 8.59635 36.9391 8.53906 37.1266C8.48177 37.3141 8.45312 37.525 8.45312 37.7594L8.45312 38.5094L13 38.5094L13 40.3609L1.79687 40.3609L1.79687 36.6734C1.79687 36.1474 1.85937 35.663 1.98437 35.2203C2.10937 34.7776 2.29948 34.3922 2.55469 34.0641C2.80469 33.7359 3.11979 33.4807 3.5 33.2984C3.875 33.1109 4.3151 33.0172 4.82031 33.0172C5.21614 33.0172 5.58073 33.0771 5.91406 33.1969C6.24219 33.3115 6.53646 33.4781 6.79687 33.6969C7.05208 33.9104 7.27083 34.1708 7.45312 34.4781C7.63542 34.7802 7.77604 35.1214 7.875 35.5016L7.90625 35.5016C8.02083 35.2984 8.14844 35.1214 8.28906 34.9703C8.42448 34.8193 8.5651 34.676 8.71094 34.5406C8.85677 34.4052 9.02344 34.2724 9.21094 34.1422C9.39323 34.0068 9.60677 33.8583 9.85156 33.6969L13 31.7047ZM3.30469 38.5094L6.94531 38.5094L6.94531 36.9625C6.94531 36.676 6.90104 36.413 6.8125 36.1734C6.72396 35.9286 6.59635 35.7177 6.42969 35.5406C6.26302 35.3635 6.05989 35.2255 5.82031 35.1266C5.58073 35.0276 5.3125 34.9781 5.01562 34.9781C4.47917 34.9781 4.05989 35.1474 3.75781 35.4859C3.45573 35.8245 3.30469 36.3115 3.30469 36.9469L3.30469 38.5094ZM13.1875 25.1312C13.1875 26.7458 12.6641 28.0401 11.6172 29.0141C10.5703 29.9828 9.20833 30.4672 7.53125 30.4672C5.72917 30.4672 4.29167 29.9724 3.21875 28.9828C2.14583 27.9932 1.60937 26.6495 1.60937 24.9516C1.60937 23.3786 2.13021 22.113 3.17187 21.1547C4.21354 20.1911 5.57552 19.7094 7.25781 19.7094C9.08594 19.7094 10.5312 20.2016 11.5937 21.1859C12.6562 22.1703 13.1875 23.4854 13.1875 25.1312ZM3.24219 25.0453C3.24219 26.0714 3.625 26.9073 4.39062 27.5531C5.15625 28.1937 6.16406 28.5141 7.41406 28.5141C8.65885 28.5141 9.66146 28.2016 10.4219 27.5766C11.1823 26.9516 11.5625 26.1339 11.5625 25.1234C11.5625 24.0505 11.2005 23.2042 10.4766 22.5844C9.7526 21.9646 8.73958 21.6547 7.4375 21.6547C6.09896 21.6547 5.0651 21.9568 4.33594 22.5609C3.60677 23.1599 3.24219 23.988 3.24219 25.0453ZM13 10.6516L13 16.8547L1.79687 16.8547L1.79687 14.9953L11.4297 14.9953L11.4297 10.6516L13 10.6516ZM13 2.02344L13 8.22656L1.79687 8.22656L1.79687 6.36719L11.4297 6.36719L11.4297 2.02344L13 2.02344Z" fill="#0D0D0D"/>
<path fill-rule="evenodd" clip-rule="evenodd" d="M6.41185 84V102.979H2L7.5 109L13 102.979H8.58815V84H6.41185Z" fill="#0D0D0D"/>
</svg>
