<svg width="41" height="37" viewBox="0 0 41 37" fill="none" xmlns="http://www.w3.org/2000/svg">
<g clip-path="url(#clip0)">
<path fill-rule="evenodd" clip-rule="evenodd" d="M16.3 33.772H0V2.98C0.0333412 2.17298 0.307814 1.39448 0.787994 0.745003C1.3824 0.264181 2.12347 0.00127705 2.888 0H16.03L11.562 18.624C11.3393 19.4556 11.4326 20.3402 11.824 21.107C12.473 21.907 14.19 21.852 14.19 21.852H19.972C20.1736 21.851 20.3729 21.8955 20.555 21.982C20.7371 22.0686 20.8974 22.195 21.024 22.352C21.113 22.8447 21.113 23.3493 21.024 23.842L19.709 31.292C19.5963 32.0548 19.2253 32.7558 18.658 33.278C17.9371 33.6694 17.1174 33.8411 16.3 33.772Z" fill="#183762"/>
<path fill-rule="evenodd" clip-rule="evenodd" d="M24.706 3.228H41V34.02C40.9667 34.827 40.6922 35.6055 40.212 36.255C39.6176 36.7358 38.8765 36.9987 38.112 37H24.969L29.437 18.376C29.6598 17.5443 29.5661 16.6596 29.174 15.893C28.526 15.093 26.809 15.148 26.809 15.148H21.027C20.8253 15.149 20.6261 15.1045 20.444 15.018C20.2618 14.9314 20.1016 14.805 19.975 14.648C19.886 14.1553 19.886 13.6507 19.975 13.158L21.29 5.708C21.4024 4.94483 21.7734 4.24339 22.341 3.72101C23.064 3.3286 23.8864 3.15717 24.706 3.228Z" fill="#183762"/>
</g>
<defs>
<clipPath id="clip0">
<rect width="41" height="37" fill="white"/>
</clipPath>
</defs>
</svg>
