<svg width="22" height="25" viewBox="0 0 22 25" fill="none" xmlns="http://www.w3.org/2000/svg">
<path d="M4.59465 16.2202C5.13156 16.2198 5.66155 16.0991 6.14564 15.8668C6.62973 15.6346 7.0556 15.2968 7.39193 14.8783L14.2513 19.0337C13.8901 19.8654 13.8606 20.8037 14.169 21.6564C14.4773 22.5091 15.1002 23.2116 15.9099 23.6198C16.7196 24.028 17.6547 24.111 18.5237 23.8518C19.3926 23.5927 20.1295 23.0109 20.5832 22.2259C21.037 21.4409 21.1733 20.512 20.9642 19.6297C20.7551 18.7474 20.2164 17.9785 19.4586 17.4806C18.7007 16.9827 17.7812 16.7936 16.8883 16.9519C15.9955 17.1103 15.1971 17.6042 14.6567 18.3323L7.82571 14.1932C8.06771 13.7034 8.19359 13.1645 8.19359 12.6182C8.19359 12.0719 8.06771 11.533 7.82571 11.0432L14.7824 6.83107C15.3595 7.53749 16.1849 7.99637 17.0895 8.11359C17.9941 8.23081 18.9093 7.99749 19.6473 7.46148C20.3853 6.92547 20.8903 6.12739 21.0587 5.23092C21.2271 4.33444 21.0461 3.40752 20.5528 2.64024C20.0596 1.87296 19.2915 1.32347 18.406 1.10448C17.5205 0.885477 16.5848 1.01356 15.7908 1.46246C14.9967 1.91136 14.4045 2.64706 14.1356 3.51867C13.8667 4.39028 13.9415 5.33175 14.3446 6.14999L7.38788 10.3581C7.0053 9.88674 6.50962 9.51993 5.94704 9.29184C5.38447 9.06374 4.7733 8.98179 4.1705 9.05361C3.56771 9.12542 2.9929 9.34868 2.49967 9.70257C2.00643 10.0565 1.61081 10.5295 1.34968 11.0775C1.08855 11.6255 0.970417 12.2307 1.00628 12.8367C1.04215 13.4427 1.23085 14.0298 1.55479 14.5432C1.87874 15.0566 2.32739 15.4796 2.85893 15.7728C3.39047 16.0661 3.98759 16.22 4.59465 16.2202V16.2202ZM17.4824 17.708C18.0162 17.708 18.5381 17.8663 18.982 18.1628C19.4259 18.4593 19.772 18.8807 19.9765 19.3738C20.181 19.867 20.2347 20.4096 20.1308 20.9333C20.027 21.4569 19.7702 21.938 19.393 22.3158C19.0158 22.6935 18.5351 22.951 18.0116 23.0556C17.4882 23.1603 16.9454 23.1074 16.452 22.9036C15.9585 22.6999 15.5366 22.3545 15.2394 21.911C14.9423 21.4675 14.7832 20.9459 14.7824 20.4121C14.7819 20.0572 14.8513 19.7056 14.9868 19.3776C15.1222 19.0495 15.321 18.7514 15.5718 18.5003C15.8226 18.2491 16.1204 18.0499 16.4482 17.9139C16.7761 17.778 17.1275 17.708 17.4824 17.708V17.708ZM17.4824 1.89732C18.0162 1.89732 18.5381 2.05557 18.982 2.35206C19.4259 2.64856 19.772 3.07 19.9765 3.56313C20.181 4.05625 20.2347 4.59891 20.1308 5.12255C20.027 5.64618 19.7702 6.12728 19.393 6.50504C19.0158 6.8828 18.5351 7.14027 18.0116 7.24491C17.4882 7.34954 16.9454 7.29665 16.452 7.09292C15.9585 6.88919 15.5366 6.54375 15.2394 6.10028C14.9423 5.6568 14.7832 5.13519 14.7824 4.60135C14.7819 4.24644 14.8513 3.89491 14.9868 3.56687C15.1222 3.23882 15.321 2.9407 15.5718 2.68955C15.8226 2.43841 16.1204 2.23917 16.4482 2.10323C16.7761 1.96729 17.1275 1.89731 17.4824 1.89732V1.89732ZM4.59465 9.8351C5.14601 9.83511 5.68496 9.99876 6.14323 10.3053C6.60151 10.6119 6.95847 11.0476 7.16891 11.5572C7.37934 12.0669 7.43378 12.6275 7.32533 13.1681C7.21688 13.7086 6.95041 14.2049 6.55969 14.5939C6.16896 14.9829 5.67156 15.2472 5.13051 15.3533C4.58945 15.4594 4.02907 15.4025 3.52038 15.1898C3.01168 14.9772 2.57755 14.6183 2.27299 14.1587C1.96842 13.6991 1.80712 13.1594 1.80953 12.6081V12.6081C1.81381 11.8718 2.109 11.1672 2.63073 10.6477C3.15247 10.1283 3.85842 9.83616 4.59465 9.8351V9.8351Z" fill="#0D0D0D" stroke="#0D0D0D" stroke-width="0.5" stroke-miterlimit="10"/>
</svg>
